<?xml version="1.0" encoding="UTF-8"?>
<svg width="794" height="829" viewBox="88 80 845 875" fill="none" xmlns="http://www.w3.org/2000/svg" role="img" aria-label="課金チェッカー ロゴマーク">
  <title>課金チェッカー ロゴマーク</title>
  <desc>小さいUI表示向けの影なしロゴマーク。</desc>

  <defs>
    <linearGradient id="navy" x1="113" y1="80" x2="908" y2="909" gradientUnits="userSpaceOnUse">
      <stop offset="0" stop-color="#06142D"/>
      <stop offset="0.52" stop-color="#031126"/>
      <stop offset="1" stop-color="#020D23"/>
    </linearGradient>

    <linearGradient id="bar1" x1="252" y1="524" x2="394" y2="649" gradientUnits="userSpaceOnUse">
      <stop offset="0" stop-color="#9DADFF"/>
      <stop offset="1" stop-color="#7787FF"/>
    </linearGradient>

    <linearGradient id="bar2" x1="444" y1="423" x2="593" y2="649" gradientUnits="userSpaceOnUse">
      <stop offset="0" stop-color="#6879FF"/>
      <stop offset="1" stop-color="#5164F3"/>
    </linearGradient>

    <linearGradient id="bar3" x1="644" y1="313" x2="796" y2="649" gradientUnits="userSpaceOnUse">
      <stop offset="0" stop-color="#4B45F4"/>
      <stop offset="1" stop-color="#2530F0"/>
    </linearGradient>

    <linearGradient id="glass" x1="171" y1="184" x2="459" y2="517" gradientUnits="userSpaceOnUse">
      <stop offset="0" stop-color="#050505"/>
      <stop offset="0.52" stop-color="#101010"/>
      <stop offset="1" stop-color="#000000"/>
    </linearGradient>
  </defs>

  <path
    d="M140 699V297A190 190 0 0 1 330 107H692A190 190 0 0 1 882 297V575"
    stroke="url(#navy)"
    stroke-width="54"
    stroke-linecap="round"
    stroke-linejoin="round"
  />

  <path
    d="M114 698H908V719C908 824 823 909 718 909H304C199 909 114 824 114 719V698Z"
    fill="url(#navy)"
  />

  <rect x="252" y="524" width="142" height="125" rx="16" fill="url(#bar1)"/>
  <rect x="444" y="423" width="149" height="226" rx="16" fill="url(#bar2)"/>
  <rect x="644" y="313" width="153" height="336" rx="17" fill="url(#bar3)"/>

  <rect x="197" y="746" width="255" height="29" rx="14.5" fill="#FFFFFF"/>
  <rect x="197" y="813" width="255" height="29" rx="14.5" fill="#FFFFFF"/>

  <line x1="250" y1="389" x2="171" y2="481" stroke="url(#glass)" stroke-width="39" stroke-linecap="round"/>
  <circle cx="334" cy="304" r="108" stroke="url(#glass)" stroke-width="34" fill="none"/>
  <path d="M275 269C285 250 302 236 323 230" stroke="#FFFFFF" stroke-width="22" stroke-linecap="round" opacity="0.7"/>
</svg>
